<?xml version="1.0" encoding="UTF-8"?>
<svg id="Layer_1" data-name="Layer 1" xmlns="http://www.w3.org/2000/svg" viewBox="0 0 925.33 1001.33">
  <defs>
    <style>
      .cls-1 {
        fill: #3a100c;
      }

      .cls-2 {
        fill: #ff7300;
      }

      .cls-3, .cls-4 {
        fill: #967717;
      }

      .cls-4 {
        font-family: Tajawal-Regular, Tajawal;
        font-size: 62.43px;
      }

      .cls-5 {
        fill: #5d6019;
      }
    </style>
  </defs>
  <g>
    <g>
      <polygon class="cls-5" points="707.4 225.55 885.78 382.27 854.72 409.55 676.34 252.82 707.4 225.55"/>
      <polygon class="cls-5" points="470.17 433.87 502.13 461.94 471.06 489.22 439.11 461.14 470.17 433.87"/>
      <polygon class="cls-2" points="421.36 390.98 453.31 419.06 422.25 446.33 390.3 418.26 421.36 390.98"/>
      <polygon class="cls-1" points="520.34 561.3 552.3 589.38 521.23 616.65 489.28 588.58 520.34 561.3"/>
      <path class="cls-3" d="M437.75,376.59l80.77,70.96,94.89-83.33,16.85,14.81-94.89,83.33,48.81,42.89-16.39,14.39-48.81-42.89-31.06,27.28,97.62,85.77-111.28,97.72-48.81-42.88-31.06,27.28,80.76,70.96,173.4-152.27-48.81-42.88,16.39-14.39,48.81,42.88,173.4-152.26-178.38-156.72-31.06,27.28,146.43,128.65-16.38,14.39-48.81-42.88-78.51,68.94,48.81,42.88-16.38,14.39-65.67-57.69,94.89-83.33-80.76-70.96-94.89,83.33-16.86-14.81,189.78-166.66-31.95-28.07-220.84,193.93ZM694.64,464.38l16.39-14.39,16.85,14.81-16.39,14.39-16.85-14.81Z"/>
      <path class="cls-5" d="M342.85,459.92l97.62,85.77-16.38,14.39-48.81-42.88-78.51,68.94,80.76,70.96,47.45-41.67,48.81,42.89,31.06-27.28-48.81-42.89,47.44-41.66-129.57-113.84-31.06,27.28ZM376.64,601.74l-16.85-14.81,16.39-14.39,16.85,14.81-16.39,14.39Z"/>
      <polygon class="cls-3" points="279.02 515.98 310.97 544.05 279.91 571.33 247.96 543.25 279.02 515.98"/>
      <polygon class="cls-5" points="326.47 474.31 358.42 502.38 327.36 529.66 295.41 501.58 326.47 474.31"/>
    </g>
    <g>
      <polygon class="cls-5" points="462.83 10.67 641.22 167.4 610.16 194.67 431.77 37.94 462.83 10.67"/>
      <path class="cls-5" d="M275.77,346.42l-97.62-85.77-31.06,27.28,146.43,128.66-63.83,56.05-16.86-14.81,47.45-41.67-80.77-70.96-78.51,68.94,129.58,113.85,173.4-152.27-80.77-70.96-47.45,41.67ZM164.02,414.94l16.39-14.39,16.86,14.81-16.39,14.39-16.86-14.81ZM340.97,374.92l-16.39,14.39-16.86-14.81,16.39-14.39,16.86,14.81Z"/>
      <polygon class="cls-3" points="415.39 52.33 593.77 209.06 420.37 361.33 322.74 275.56 290.8 247.48 273.94 232.67 257.56 247.06 306.36 289.94 275.3 317.22 194.54 246.26 273.05 177.32 321.86 220.2 353.81 248.28 419.48 305.98 435.86 291.59 387.05 248.71 434.5 207.04 417.64 192.23 370.19 233.89 289.43 162.94 367.94 93.99 399.9 122.07 352.45 163.74 369.3 178.54 416.75 136.88 497.52 207.84 450.07 249.5 466.93 264.32 530.76 208.26 384.32 79.61 415.39 52.33"/>
      <polygon class="cls-1" points="130.71 302.32 162.67 330.39 131.6 357.67 99.65 329.59 130.71 302.32"/>
      <polygon class="cls-3" points="83.26 343.98 115.22 372.06 84.16 399.33 52.2 371.26 83.26 343.98"/>
    </g>
  </g>
  <g>
    <g>
      <path class="cls-3" d="M69.31,791.41c.32.86.27,1.82-.16,2.85-.43,1.04-.91,1.46-1.44,1.26-.85-.29-2.53-.99-5.04-2.09-2.24,3.7-6.86,8.45-13.87,14.24-7.01,5.79-11.69,8.69-14.03,8.69-.48,0-.8-.17-.96-.51,4.37-3.41,8.77-6.83,13.19-10.24,7.3-5.77,11.7-10.12,13.19-13.05-1.44-.82-2.91-1.63-4.4-2.45-1.33-1.06-2-2.52-2-4.4,0-1.06.85-2.62,2.56-4.69,1.71-2.07,3.17-3.1,4.4-3.1,3.57,0,5.36,1.92,5.36,5.77,0,1.54-.37,3.17-1.12,4.9,1.33.63,2.77,1.56,4.32,2.81ZM62.59,788.09c.16-.53.24-1.08.24-1.66,0-2.5-.85-3.75-2.56-3.75-1.33,0-2.08.55-2.24,1.66-.16.96,1.36,2.21,4.56,3.75Z"/>
      <path class="cls-5" d="M91.47,913.67c-8.53.29-15.43-2.16-20.71-7.36-1.6-1.59-3.49-4.3-5.68-8.15-1.49-2.69-3.04-4.09-4.64-4.18-2.13-.14-4.97,1.19-8.51,4-3.55,2.81-5.98,5.54-7.32,8.19-2.29,5.15-4.61,10.29-6.96,15.44-2.51,4.81-5.49,7.21-8.95,7.21-4.27,0-8.08-2.55-11.43-7.64-3.52-5.43-5.28-12.07-5.28-19.91,0-3.13.51-7.33,1.52-12.62.37-1.97.88-2.96,1.52-2.96.69,0,.99,1.13.88,3.39-.05,1.83-.19,3.87-.4,6.13-.11,1.73-.16,3.15-.16,4.26,0,4.47.88,8.85,2.64,13.13,2.19,5.48,5.12,8.22,8.8,8.22,3.2,0,5.81-1.68,7.84-5.05,1.87-4.04,3.7-8.05,5.52-12.04,2.72-5.77,6-10.48,9.83-14.14,4.26-4.09,8.34-6.13,12.23-6.13,1.97,0,4.05,1.59,6.24,4.76,3.41,5.05,5.33,7.79,5.76,8.22,4.58,4.76,10.34,7.14,17.27,7.14v10.1ZM48.7,855.69c0,1.2-.32,2.65-.96,4.33-.8,2.02-1.71,3.03-2.72,3.03-.48,0-2.43-.94-5.84-2.81-3.68-1.97-5.52-3.37-5.52-4.18,0-.77,1.31-3.73,3.92-8.87,1.55,1.4,4.08,3.03,7.59,4.9,2.35,1.2,3.52,2.41,3.52,3.61ZM64.77,851.5c0,.72-.35,2.02-1.04,3.89-.91,2.26-1.84,3.87-2.8,4.83-2.13-1.01-4.24-2.04-6.32-3.1-2.93-1.49-4.4-2.62-4.4-3.39,0-.29.56-1.67,1.68-4.15s1.92-3.71,2.4-3.71c6.98,2.69,10.47,4.57,10.47,5.63Z"/>
      <path class="cls-3" d="M127.96,779.5l-.32,3.89c-4.37,1.88-11.49,5.05-21.35,9.52-6.61,3.08-15.72,7.53-27.34,13.34l.4-3.89c5.49-2.79,14.58-7.24,27.26-13.34,5.12-2.36,12.23-5.53,21.35-9.52Z"/>
      <path class="cls-5" d="M131.69,913.67c-9.59,0-16.28-7.07-20.07-21.2-.69,7.55-3.28,13.17-7.76,16.88-3.47,2.89-7.59,4.33-12.39,4.33v-10.1c3.89,0,7.54-.72,10.95-2.16,3.41-1.44,5.25-3.1,5.52-4.98.48-3.7.59-8.2.32-13.49-.21-4.57-.61-8.8-1.2-12.69-1.28-9.33-3.47-24.16-6.56-44.5-1.76-10.43-2.67-16.44-2.72-18.03.11.82.77-2.19,2-9.02.21-.29.45-.43.72-.43,1.65,0,3.94,8.39,6.88,25.17,1.97,11.2,3.7,23.42,5.2,36.64.8,7.17,1.6,14.35,2.4,21.57,1.01,7.31,3.49,13.01,7.44,17.09,3.09,3.22,6.18,4.83,9.27,4.83v10.1Z"/>
      <path class="cls-3" d="M193.1,906.14l-.4,3.97c-4.37,1.88-11.49,5-21.35,9.38-6.61,3.03-15.7,7.5-27.26,13.41l.4-3.89c5.49-2.84,14.55-7.31,27.18-13.41,5.12-2.36,12.26-5.51,21.43-9.45Z"/>
      <path class="cls-5" d="M177.59,898.09c0,2.45-.61,4.79-1.84,7-1.39,2.36-2.99,3.53-4.8,3.53-2.03,0-5.06-.89-9.11-2.67-4.64-2.12-8.02-4.45-10.15-7-3.09,4.71-5.17,7.6-6.24,8.66-3.89,4.04-8.47,6.06-13.75,6.06v-10.1c3.62,0,7.06-.6,10.31-1.8,2.02-.77,4.53-3.13,7.52-7.07,2.82-3.7,4.53-5.55,5.12-5.55.27,0,.51.17.72.51,3.62-6.2,7.57-9.3,11.83-9.3,3.46,0,6.13,1.9,8,5.7,1.6,3.22,2.4,7.24,2.4,12.04ZM169.43,897.16c-.05-1.73-.6-3.31-1.64-4.72-1.04-1.42-2.15-2.13-3.32-2.13-2.24,0-4,.53-5.28,1.59,2.4,1.97,3.76,3.05,4.08,3.25,1.76,1.11,3.81,1.78,6.16,2.02Z"/>
      <path class="cls-5" d="M230.04,913.67c-4.85,0-9.35-2.09-13.51-6.27-3.15-3.17-5.3-6.52-6.48-10.02-1.55-4.57-3.04-13.27-4.48-26.11-1.6-14.33-3.44-27.72-5.52-40.17-.59-3.65-1.95-8.56-4.08-14.71-1.92-5.67-2.88-8.66-2.88-8.94.75-2.26,1.6-5.17,2.56-8.73.16-.24.37-.36.64-.36,1.33,0,3.2,3.63,5.6,10.89,2.24,6.78,3.92,13.3,5.04,19.55,1.92,11.06,3.44,22.38,4.56,33.97.53,6.3,1.09,12.6,1.68,18.9,1.01,7.31,3.52,13.01,7.52,17.09,3.14,3.22,6.26,4.83,9.35,4.83v10.1Z"/>
      <path class="cls-3" d="M337.18,788.58l-.32,3.89c-4.37,1.88-11.49,5.05-21.35,9.52-6.61,3.08-15.72,7.53-27.34,13.34l.4-3.89c5.49-2.79,14.58-7.24,27.26-13.34,5.12-2.36,12.23-5.53,21.35-9.52Z"/>
      <path class="cls-5" d="M395.3,913.67c-1.92,0-3.84-.53-5.76-1.59-2.61-1.49-4.05-3.58-4.32-6.27-.27-2.69-.11-4.98.48-6.85-1.92.77-3.92,1.18-6,1.23-.8,0-17.62,2.29-50.45,6.85-32.04,4.42-57.06,6.64-75.08,6.64h-24.15v-10.1h24.23c17.22,0,41.95-1.9,74.2-5.7,33.1-3.94,49.76-5.91,49.97-5.91,2.98-.05,5.38-.22,7.2-.5-5.01-9.14-16.44-13.7-34.3-13.7-5.38,0-19.27,1.03-41.66,3.1-22.39,2.07-37.61,3.1-45.65,3.1-19.4,0-29.1-3.08-29.1-9.23,0-.62.11-1.25.32-1.88,1.97-6.39,5.06-11.83,9.27-16.3,3.36-3.56,8.69-7.67,15.99-12.33,17-10.86,29.56-16.32,37.66-16.37,4.48-.05,6.72,1.27,6.72,3.97,0,1.4-.93,3.8-2.8,7.21-.85,1.54-1.41,2.31-1.68,2.31-.59,0-1.17-.84-1.76-2.52-.64-1.88-2.35-2.77-5.12-2.67-1.55.19-5.28,1.56-11.19,4.11-6.66,2.89-12.26,5.75-16.79,8.58-15.88,9.9-23.88,16.66-23.99,20.27-.05,1.54,2.27,2.91,6.96,4.11,5.7,1.4,13.67,2.07,23.91,2.02,4.58-.05,17.46-1.03,38.62-2.96,20.95-1.92,34.38-2.89,40.3-2.89,12.42,0,21.32.92,26.7,2.74,6.4,2.16,11.35,6.49,14.87,12.98.27.53.4,1.18.4,1.95,0,3.37-1.71,6.73-5.12,10.1.11.24.16.93.16,2.06s.72,2.23,2.16,3.28c1.01.72,2.61,1.08,4.8,1.08v10.1Z"/>
      <path class="cls-3" d="M406.92,788.23c0,1.64-.75,3.07-2.24,4.29-1.49,1.23-3.04,1.84-4.64,1.84-2.13,0-3.2-1.27-3.2-3.82,0-1.83.51-3.73,1.52-5.7.64-1.16,1.31-2.31,2-3.46.16-.38.85-1.75,2.08-4.11.11-.24.35-.48.72-.72.48-.24.72-.17.72.22,0,.24-.88,2.24-2.64,5.99,1.23-.14,2.48.31,3.76,1.37,1.28,1.06,1.92,2.43,1.92,4.11ZM404.84,789.45c-1.12-2.36-2.91-3.39-5.36-3.1-.53.72-.72,1.56-.56,2.53.16.48.59,1.15,1.28,2.02,1.07-.19,2.61-.67,4.64-1.44Z"/>
      <path class="cls-5" d="M414.41,885.98c.21,9.23-1.36,15.94-4.72,20.12-4.05,5.05-8.85,7.57-14.39,7.57v-10.1c4.42,0,7.7-.58,9.83-1.73,1.7-.87,3.14-2.43,4.32-4.69.11-.14.16-.53.16-1.15,0-4.42-2.69-25.34-8.08-62.75-.91-6.44-1.6-13.7-2.08-21.78-.11-.29-.59-.96-1.44-2.02-.32-.38-.48-.91-.48-1.59,0-1.3.85-4.35,2.56-9.16.11-.33.27-.5.48-.5.53,0,1.28,1.11,2.24,3.32,5.49,9.38,8.24,15.46,8.24,18.25,0,.48-.16.72-.48.72-.27,0-.61-.14-1.04-.43-.11-.1-1.52-1.49-4.24-4.18,2.72,17.89,5.76,41.25,9.12,70.1Z"/>
      <path class="cls-3" d="M444.68,781.65c-.62-.58-1.53-.85-2.75-.8-2.08.11-4.65,1.52-7.68,4.26-2.2,1.98-3.93,3.89-5.21,5.77-.37-.05-1.13-.38-2.27-1.02-1.16-.62-2.13-.91-2.92-.86-2.57.11-5.81,2.97-9.76,8.59-.81,1.11-1.19,1.89-1.19,2.38,0,.2.1.32.32.36.59,0,1.33-.52,2.23-1.52,1.49-1.64,3.06-2.7,4.72-3.18.37-.09,1.63.44,3.76,1.59,2.12,1.15,3.8,1.61,5.02,1.38,4.43-.88,8.25-2.62,11.44-5.27,3.41-2.88,5.14-6.03,5.21-9.45,0-.91-.32-1.65-.92-2.23ZM438.39,790.28c-1.91.94-3.76,1.41-5.51,1.41-.49,0-.94-.06-1.36-.15,1.6-2.94,4-4.39,7.19-4.39,1.71,0,2.57.29,2.57.86s-.97,1.33-2.89,2.27Z"/>
      <path class="cls-5" d="M445.75,890.31c.21,2.4.32,4.73.32,7,0,7.98-1.04,13.73-3.12,17.24-.8,1.35-1.39,2.02-1.76,2.02-.59,0-.67-1.54-.24-4.62.53-3.89.56-7.96.08-12.19-1.92-13.75-4.58-34.43-7.99-62.02-.43-5.05-1.15-12.33-2.16-21.85-.16-.53-.88-1.95-2.16-4.26-.32-.53.53-3.58,2.56-9.16.11-.34.27-.5.48-.5.53,0,1.28,1.03,2.24,3.1,1.65,3.17,3.28,6.35,4.88,9.52,2.56,4.9,3.84,7.96,3.84,9.16,0,.38-.16.58-.48.58-.21,0-.56-.14-1.04-.43-1.33-.91-2.75-2.07-4.24-3.46-.11,1.35.99,10.19,3.28,26.54,2.77,19.47,4.61,33.92,5.52,43.35Z"/>
      <path class="cls-3" d="M540.48,791.41c.32.86.27,1.82-.16,2.85-.43,1.04-.91,1.46-1.44,1.26-.85-.29-2.53-.99-5.04-2.09-2.24,3.7-6.86,8.45-13.87,14.24s-11.69,8.69-14.03,8.69c-.48,0-.8-.17-.96-.51,4.37-3.41,8.77-6.83,13.19-10.24,7.3-5.77,11.7-10.12,13.19-13.05-1.44-.82-2.91-1.63-4.4-2.45-1.33-1.06-2-2.52-2-4.4,0-1.06.85-2.62,2.56-4.69,1.7-2.07,3.17-3.1,4.4-3.1,3.57,0,5.36,1.92,5.36,5.77,0,1.54-.37,3.17-1.12,4.9,1.33.63,2.77,1.56,4.32,2.81ZM533.76,788.09c.16-.53.24-1.08.24-1.66,0-2.5-.85-3.75-2.56-3.75-1.33,0-2.08.55-2.24,1.66-.16.96,1.36,2.21,4.56,3.75Z"/>
      <path class="cls-5" d="M562.65,913.67c-8.53.29-15.43-2.16-20.71-7.36-1.6-1.59-3.49-4.3-5.68-8.15-1.49-2.69-3.04-4.09-4.64-4.18-2.13-.14-4.97,1.19-8.52,4-3.54,2.81-5.98,5.54-7.31,8.19-2.29,5.15-4.61,10.29-6.96,15.44-2.5,4.81-5.49,7.21-8.95,7.21-4.26,0-8.07-2.55-11.43-7.64-3.52-5.43-5.28-12.07-5.28-19.91,0-3.13.51-7.33,1.52-12.62.37-1.97.88-2.96,1.52-2.96.69,0,.99,1.13.88,3.39-.06,1.83-.19,3.87-.4,6.13-.11,1.73-.16,3.15-.16,4.26,0,4.47.88,8.85,2.64,13.13,2.18,5.48,5.12,8.22,8.8,8.22,3.2,0,5.81-1.68,7.84-5.05,1.86-4.04,3.7-8.05,5.52-12.04,2.72-5.77,6-10.48,9.83-14.14,4.26-4.09,8.34-6.13,12.23-6.13,1.97,0,4.05,1.59,6.24,4.76,3.41,5.05,5.33,7.79,5.76,8.22,4.58,4.76,10.34,7.14,17.27,7.14v10.1ZM519.87,855.69c0,1.2-.32,2.65-.96,4.33-.8,2.02-1.71,3.03-2.72,3.03-.48,0-2.43-.94-5.84-2.81-3.68-1.97-5.52-3.37-5.52-4.18,0-.77,1.31-3.73,3.92-8.87,1.55,1.4,4.08,3.03,7.6,4.9,2.35,1.2,3.52,2.41,3.52,3.61ZM535.94,851.5c0,.72-.35,2.02-1.04,3.89-.91,2.26-1.84,3.87-2.8,4.83-2.13-1.01-4.24-2.04-6.32-3.1-2.93-1.49-4.4-2.62-4.4-3.39,0-.29.56-1.67,1.68-4.15s1.92-3.71,2.4-3.71c6.98,2.69,10.47,4.57,10.47,5.63Z"/>
      <path class="cls-3" d="M602.38,826.12l-.32,3.89c-4.37,1.88-11.49,5.02-21.35,9.45-6.61,3.03-15.73,7.5-27.34,13.42l.4-3.97c5.49-2.84,14.55-7.31,27.19-13.42,5.12-2.36,12.26-5.48,21.43-9.38Z"/>
      <path class="cls-5" d="M593.11,913.67c-1.6,0-3.68-.58-6.24-1.73-2.99-1.35-5.17-2.93-6.56-4.76-1.12-1.54-1.6-3.44-1.44-5.7-2.35,4.33-4.24,7.12-5.68,8.37-2.93,2.55-6.45,3.82-10.55,3.82v-10.1c5.01,0,8.72-.77,11.11-2.31.64-.39,1.44-1.42,2.4-3.1,1.12-1.97,1.79-3.08,2-3.32,2.66-3.13,4-3.75,4-1.88,0,.67-.21,1.56-.64,2.67.27.67.71,1.5,1.32,2.49.61.99,2.15,2.14,4.6,3.46,2.45,1.32,4.34,1.98,5.68,1.98v10.1ZM584.39,923.84c0,3.32-1.07,6.13-3.2,8.44-3.09-1.44-6.21-2.86-9.36-4.26-1.55-.82-2.32-1.66-2.32-2.52,0,.29.96-2.69,2.88-8.94,1.39,1.06,4,2.4,7.84,4.04,2.77,1.2,4.16,2.28,4.16,3.25Z"/>
      <path class="cls-3" d="M632.85,785.23l-.32,3.89c-4.37,1.88-11.49,5.05-21.35,9.52-6.61,3.08-15.72,7.53-27.34,13.34l.4-3.89c5.49-2.79,14.58-7.24,27.26-13.34,5.12-2.36,12.23-5.53,21.35-9.52Z"/>
      <path class="cls-5" d="M594.31,848.83c.16.1.24.36.24.79,0,2.45-.93,5.38-2.8,8.8-.05.15-.19.22-.4.22-.53,0-3.36-1.71-8.47-5.12-.21-.15-.32-.43-.32-.87,0,.34.85-2.69,2.56-9.09.05-.1.13-.15.24-.15.32,0,1.49.72,3.52,2.17,2.29,1.63,4.1,2.72,5.44,3.25ZM602.46,863.04c.21.14.32.43.32.87,0,.39-.91,3.27-2.72,8.66-.11.24-.27.36-.48.36-.27,0-1.39-.67-3.36-2.02-2.24-1.54-4.34-2.6-6.32-3.17-.11-.05-.16-.19-.16-.43,0-.82.48-2.62,1.44-5.41.96-2.64,1.49-3.92,1.6-3.82,2.61,1.3,5.84,2.96,9.67,4.98ZM623.57,913.67c-1.6,0-3.68-.58-6.24-1.73-2.99-1.35-5.17-2.93-6.56-4.76-1.12-1.54-1.6-3.44-1.44-5.7-2.35,4.33-4.24,7.12-5.68,8.37-2.93,2.55-6.45,3.82-10.55,3.82v-10.1c5.01,0,8.72-.77,11.11-2.31.64-.39,1.44-1.42,2.4-3.1,1.12-1.97,1.79-3.08,2-3.32,2.66-3.13,4-3.75,4-1.88,0,.67-.21,1.56-.64,2.67.27.67.71,1.5,1.32,2.49.61.99,2.15,2.14,4.6,3.46,2.45,1.32,4.34,1.98,5.68,1.98v10.1Z"/>
      <path class="cls-3" d="M711.24,794.68c0,1.64-.75,3.07-2.24,4.29-1.49,1.23-3.04,1.84-4.64,1.84-2.13,0-3.2-1.27-3.2-3.82,0-1.83.51-3.73,1.52-5.7.64-1.16,1.31-2.31,2-3.46.16-.38.85-1.75,2.08-4.11.11-.24.35-.48.72-.72.48-.24.72-.17.72.22,0,.24-.88,2.24-2.64,5.99,1.23-.14,2.48.31,3.76,1.37s1.92,2.43,1.92,4.11ZM709.16,795.91c-1.12-2.36-2.91-3.39-5.36-3.1-.53.72-.72,1.56-.56,2.53.16.48.59,1.15,1.28,2.02,1.07-.19,2.61-.67,4.64-1.44Z"/>
      <path class="cls-5" d="M788.84,913.67c-1.92,0-3.84-.53-5.76-1.59-2.61-1.49-4.05-3.58-4.32-6.27-.27-2.69-.11-4.98.48-6.85-1.92.77-3.92,1.18-6,1.23-.8,0-17.62,2.29-50.45,6.85-32.03,4.42-57.06,6.64-75.08,6.64h-24.15v-10.1h24.23c17.22,0,41.95-1.9,74.2-5.7,33.1-3.94,49.76-5.91,49.97-5.91,2.98-.05,5.38-.22,7.19-.5-5.01-9.14-16.44-13.7-34.3-13.7-5.38,0-19.27,1.03-41.66,3.1-22.39,2.07-37.61,3.1-45.65,3.1-19.4,0-29.1-3.08-29.1-9.23,0-.62.11-1.25.32-1.88,1.97-6.39,5.06-11.83,9.27-16.3,3.36-3.56,8.69-7.67,15.99-12.33,17-10.86,29.55-16.32,37.66-16.37,4.48-.05,6.72,1.27,6.72,3.97,0,1.4-.93,3.8-2.8,7.21-.85,1.54-1.41,2.31-1.68,2.31-.59,0-1.17-.84-1.76-2.52-.64-1.88-2.35-2.77-5.12-2.67-1.55.19-5.28,1.56-11.2,4.11-6.66,2.89-12.26,5.75-16.79,8.58-15.88,9.9-23.88,16.66-23.99,20.27-.05,1.54,2.27,2.91,6.96,4.11,5.7,1.4,13.67,2.07,23.91,2.02,4.58-.05,17.46-1.03,38.62-2.96,20.95-1.92,34.38-2.89,40.3-2.89,12.42,0,21.32.92,26.7,2.74,6.4,2.16,11.35,6.49,14.87,12.98.27.53.4,1.18.4,1.95,0,3.37-1.71,6.73-5.12,10.1.11.24.16.93.16,2.06s.72,2.23,2.16,3.28c1.01.72,2.61,1.08,4.8,1.08v10.1Z"/>
      <path class="cls-3" d="M846.17,826.12l-.32,3.89c-4.37,1.88-11.49,5.02-21.35,9.45-6.61,3.03-15.73,7.5-27.34,13.42l.4-3.97c5.49-2.84,14.55-7.31,27.19-13.42,5.12-2.36,12.26-5.48,21.43-9.38Z"/>
      <path class="cls-5" d="M854.56,913.67c-5.76,0-12.98-2.89-21.67-8.66-.43,2.02-1.28,4.06-2.56,6.13-1.49,2.41-2.93,3.68-4.32,3.82-1.28.14-3.79-.75-7.52-2.67-4.8-2.45-8.87-5.63-12.23-9.52-1.81,2.26-4.24,4.5-7.28,6.71-3.95,2.79-7.33,4.18-10.15,4.18v-10.1c4.48,0,8.09-.62,10.83-1.88,2.74-1.25,5.66-3.68,8.76-7.28.64.29,1.25.12,1.84-.51,4.05-4.52,7.84-6.78,11.35-6.78,2.98,0,5.3.76,6.96,2.27,1.65,1.51,3.3,3.04,4.96,4.58,9.01,6.4,16.02,9.59,21.03,9.59v10.1ZM826.02,904.15c-.27-2.5-1.31-4.54-3.12-6.13-1.55-1.39-3.22-2.09-5.04-2.09-.91.14-2.27.6-4.08,1.37,3.3,2.45,7.38,4.74,12.23,6.85Z"/>
      <path class="cls-3" d="M869.19,769.92c0,1.64-.75,3.07-2.24,4.29-1.49,1.23-3.04,1.84-4.64,1.84-2.13,0-3.2-1.27-3.2-3.82,0-1.83.51-3.73,1.52-5.7.64-1.16,1.31-2.31,2-3.46.16-.38.85-1.75,2.08-4.11.11-.24.35-.48.72-.72.48-.24.72-.17.72.22,0,.24-.88,2.24-2.64,5.99,1.23-.14,2.48.31,3.76,1.37,1.28,1.06,1.92,2.43,1.92,4.11ZM867.11,771.14c-1.12-2.36-2.91-3.39-5.36-3.1-.53.72-.72,1.56-.56,2.53.16.48.59,1.15,1.28,2.02,1.07-.19,2.61-.67,4.64-1.44Z"/>
      <path class="cls-5" d="M873.67,885.98c.21,9.23-1.36,15.94-4.72,20.12-4.05,5.05-8.85,7.57-14.39,7.57v-10.1c4.42,0,7.7-.58,9.83-1.73,1.7-.87,3.15-2.43,4.32-4.69.11-.14.16-.53.16-1.15,0-4.42-2.69-25.34-8.07-62.75-.91-6.44-1.6-13.7-2.08-21.78-.11-.29-.59-.96-1.44-2.02-.32-.38-.48-.91-.48-1.59,0-1.3.85-4.35,2.56-9.16.11-.33.27-.5.48-.5.53,0,1.28,1.11,2.24,3.32,5.49,9.38,8.23,15.46,8.23,18.25,0,.48-.16.72-.48.72-.27,0-.61-.14-1.04-.43-.11-.1-1.52-1.49-4.24-4.18,2.72,17.89,5.76,41.25,9.11,70.1Z"/>
      <path class="cls-3" d="M903.94,770.16c-.62-.59-1.55-.85-2.77-.8-2.07.09-4.64,1.52-7.68,4.26-2.18,1.97-3.91,3.89-5.19,5.77-.37-.05-1.13-.38-2.28-1.02-1.14-.62-2.12-.91-2.91-.86-2.57.11-5.81,2.95-9.76,8.59-.81,1.11-1.21,1.89-1.21,2.38,0,.18.12.3.32.35.59,0,1.34-.5,2.25-1.52,1.49-1.62,3.06-2.68,4.72-3.17.37-.09,1.61.44,3.75,1.59s3.81,1.61,5.04,1.36c4.43-.86,8.25-2.62,11.44-5.26,3.41-2.89,5.14-6.05,5.19-9.45,0-.91-.3-1.65-.91-2.23ZM897.66,778.76c-1.91.94-3.76,1.41-5.51,1.41-.49,0-.94-.05-1.36-.14,1.6-2.94,4-4.41,7.19-4.41,1.71,0,2.55.29,2.55.86s-.96,1.33-2.87,2.27Z"/>
      <path class="cls-5" d="M905.01,890.31c.21,2.4.32,4.73.32,7,0,7.98-1.04,13.73-3.12,17.24-.8,1.35-1.39,2.02-1.76,2.02-.59,0-.67-1.54-.24-4.62.53-3.89.56-7.96.08-12.19-1.92-13.75-4.59-34.43-7.99-62.02-.43-5.05-1.15-12.33-2.16-21.85-.16-.53-.88-1.95-2.16-4.26-.32-.53.53-3.58,2.56-9.16.11-.34.27-.5.48-.5.53,0,1.28,1.03,2.24,3.1,1.65,3.17,3.28,6.35,4.88,9.52,2.56,4.9,3.84,7.96,3.84,9.16,0,.38-.16.58-.48.58-.21,0-.56-.14-1.04-.43-1.33-.91-2.75-2.07-4.24-3.46-.11,1.35.99,10.19,3.28,26.54,2.77,19.47,4.61,33.92,5.52,43.35Z"/>
    </g>
    <text class="cls-4" transform="translate(91.47 983.25) scale(.87 1)"><tspan x="0" y="0">مكتبة تكاملت موضوعاتها و كتبها</tspan></text>
  </g>
</svg>